<svg viewBox="0 0 80 80"><path d="M40 7C36.144531 7 33 10.144531 33 14C33 17.855469 36.144531 21 40 21C43.855469 21 47 17.855469 47 14C47 10.144531 43.855469 7 40 7 Z M 40 9C42.773438 9 45 11.226563 45 14C45 16.773438 42.773438 19 40 19C37.226563 19 35 16.773438 35 14C35 11.226563 37.226563 9 40 9 Z M 14 19C10.144531 19 7 22.144531 7 26C7 29.855469 10.144531 33 14 33C16.453125 33 18.613281 31.726563 19.863281 29.808594L19.988281 30.292969L20.265625 30.511719L20.355469 30.558594L21.25 30.582031L21.808594 29.882813L21.578125 29.015625L21.300781 28.796875L21.214844 28.75L20.441406 28.726563C20.800781 27.886719 21 26.964844 21 26C21 22.144531 17.855469 19 14 19 Z M 14 21C16.773438 21 19 23.226563 19 26C19 28.773438 16.773438 31 14 31C11.226563 31 9 28.773438 9 26C9 23.226563 11.226563 21 14 21 Z M 39.71875 21.25L39.0625 21.863281L39 22.210938L39 22.3125L39.402344 23.109375L40.28125 23.269531L40.9375 22.65625L41 22.3125L41 22.210938L40.597656 21.410156 Z M 66 22C62.144531 22 59 25.144531 59 29C59 29.65625 59.097656 30.285156 59.265625 30.890625L58.855469 31.375L59.050781 32.246094L59.871094 32.609375L60 32.582031C61.226563 34.625 63.453125 36 66 36C69.855469 36 73 32.855469 73 29C73 25.144531 69.855469 22 66 22 Z M 66 24C68.773438 24 71 26.226563 71 29C71 31.773438 68.773438 34 66 34C63.226563 34 61 31.773438 61 29C61 26.226563 63.226563 24 66 24 Z M 39.71875 25.351563L39.0625 25.964844L39 26.3125L39 26.410156L39.402344 27.214844L40.28125 27.371094L40.9375 26.757813L41 26.410156L41 26.3125L40.597656 25.511719 Z M 39.71875 29.453125L39.078125 30.046875C35.957031 30.335938 33.246094 32.066406 31.617188 34.566406L31.152344 34.554688L30.59375 35.253906L30.808594 36.074219C30.289063 37.277344 30 38.605469 30 40C30 42.964844 31.304688 45.625 33.363281 47.457031L33.3125 47.707031L33.917969 48.375L34.464844 48.316406C36.050781 49.378906 37.953125 50 40 50C42.785156 50 45.308594 48.851563 47.125 47.003906L47.289063 46.890625L47.292969 46.816406C48.964844 45.03125 50 42.636719 50 40C50 38.859375 49.796875 37.765625 49.441406 36.742188L49.5625 36.605469L49.359375 35.730469L48.9375 35.542969C47.410156 32.496094 44.375 30.332031 40.8125 30.042969L40.597656 29.609375 Z M 23.929688 30.667969L23.375 31.371094L23.601563 32.234375L23.875 32.453125L23.964844 32.5L24.859375 32.527344L25.417969 31.828125L25.1875 30.960938L24.914063 30.738281L24.828125 30.691406 Z M 40 32C44.429688 32 48 35.570313 48 40C48 44.429688 44.429688 48 40 48C35.570313 48 32 44.429688 32 40C32 35.570313 35.570313 32 40 32 Z M 56.09375 32.171875L55.75 32.25L55.660156 32.289063L55.078125 32.96875L55.277344 33.84375L56.09375 34.207031L56.4375 34.128906L56.53125 34.09375L57.109375 33.410156L56.914063 32.535156 Z M 27.539063 32.609375L26.984375 33.3125L27.210938 34.179688L27.484375 34.398438L27.574219 34.445313L28.46875 34.472656L29.027344 33.769531L28.796875 32.90625L28.523438 32.6875L28.4375 32.636719 Z M 52.316406 33.769531L51.972656 33.847656L51.882813 33.886719L51.300781 34.566406L51.5 35.441406L52.316406 35.808594L52.660156 35.730469L52.753906 35.6875L53.335938 35.007813L53.140625 34.132813 Z M 40 34C39.449219 34 39 34.449219 39 35C39 35.550781 39.449219 36 40 36C40.550781 36 41 35.550781 41 35C41 34.449219 40.550781 34 40 34 Z M 43.546875 35.464844C43.277344 35.460938 43.019531 35.566406 42.828125 35.753906C42.4375 36.144531 42.4375 36.78125 42.828125 37.171875C43.21875 37.558594 43.851563 37.558594 44.242188 37.171875C44.632813 36.78125 44.632813 36.144531 44.242188 35.753906C44.058594 35.570313 43.808594 35.464844 43.546875 35.464844 Z M 36.480469 35.464844C36.207031 35.460938 35.945313 35.566406 35.753906 35.757813C35.367188 36.148438 35.367188 36.78125 35.753906 37.171875C36.144531 37.5625 36.78125 37.5625 37.171875 37.171875C37.558594 36.78125 37.558594 36.148438 37.171875 35.757813C36.984375 35.574219 36.738281 35.46875 36.480469 35.464844 Z M 35 39C34.449219 39 34 39.449219 34 40C34 40.550781 34.449219 41 35 41C35.550781 41 36 40.550781 36 40C36 39.449219 35.550781 39 35 39 Z M 45 39C44.449219 39 44 39.449219 44 40C44 40.550781 44.449219 41 45 41C45.550781 41 46 40.550781 46 40C46 39.449219 45.550781 39 45 39 Z M 36.480469 42.535156C36.207031 42.53125 35.949219 42.636719 35.757813 42.828125C35.367188 43.21875 35.367188 43.851563 35.757813 44.242188C36.148438 44.632813 36.78125 44.632813 37.171875 44.242188C37.5625 43.851563 37.5625 43.21875 37.171875 42.828125C36.988281 42.644531 36.738281 42.539063 36.480469 42.535156 Z M 43.550781 42.535156C43.28125 42.53125 43.019531 42.636719 42.828125 42.828125C42.4375 43.21875 42.4375 43.851563 42.828125 44.242188C43.21875 44.632813 43.851563 44.632813 44.242188 44.242188C44.632813 43.851563 44.632813 43.21875 44.242188 42.828125C44.058594 42.644531 43.8125 42.539063 43.550781 42.535156 Z M 40 44C39.449219 44 39 44.449219 39 45C39 45.550781 39.449219 46 40 46C40.550781 46 41 45.550781 41 45C41 44.449219 40.550781 44 40 44 Z M 49.09375 48.25L48.359375 48.761719L48.328125 49.65625L48.53125 49.945313L48.605469 50.015625L49.453125 50.296875L50.1875 49.785156L50.21875 48.890625L50.015625 48.605469L49.945313 48.53125 Z M 32.199219 49.675781L31.308594 49.765625L31.046875 50L30.984375 50.078125L30.8125 50.957031L31.417969 51.621094L32.3125 51.535156L32.570313 51.296875L32.628906 51.21875L32.800781 50.339844 Z M 51.996094 51.148438L51.261719 51.660156L51.230469 52.558594L51.433594 52.84375L51.5 52.917969L52.351563 53.199219L53.089844 52.6875L53.117188 51.792969L52.917969 51.5L52.84375 51.433594 Z M 29.699219 52.925781L28.808594 53.011719L28.546875 53.25L28.484375 53.328125L28.3125 54.207031L28.917969 54.871094L29.8125 54.785156L30.070313 54.546875L30.128906 54.46875L30.300781 53.589844 Z M 54.894531 54.046875L54.15625 54.5625L54.128906 55.453125L54.328125 55.746094L54.402344 55.8125L55.25 56.097656L55.984375 55.585938L56.015625 54.6875L55.8125 54.402344L55.746094 54.328125 Z M 27.199219 56.175781L26.308594 56.261719L26.046875 56.5L25.984375 56.578125L25.816406 57.457031L26.417969 58.121094L27.3125 58.035156L27.570313 57.796875L27.632813 57.71875L27.800781 56.839844 Z M 57.792969 56.949219L57.058594 57.457031L57.027344 58.355469L57.230469 58.644531L57.300781 58.714844L58.152344 58.996094L58.886719 58.484375L58.917969 57.589844L58.714844 57.300781L58.644531 57.230469 Z M 20 59C16.144531 59 13 62.144531 13 66C13 69.855469 16.144531 73 20 73C23.855469 73 27 69.855469 27 66C27 64.101563 26.234375 62.375 25 61.113281L25.070313 61.046875L25.132813 60.96875L25.300781 60.089844L24.699219 59.425781L23.808594 59.511719L23.546875 59.75L23.484375 59.828125L23.46875 59.929688C22.441406 59.339844 21.261719 59 20 59 Z M 66 59C64.414063 59 62.953125 59.539063 61.777344 60.433594L61.613281 60.199219L61.542969 60.128906L60.691406 59.84375L59.957031 60.359375L59.925781 61.253906L60.128906 61.542969L60.199219 61.613281L60.484375 61.707031C59.558594 62.894531 59 64.382813 59 66C59 69.855469 62.144531 73 66 73C69.855469 73 73 69.855469 73 66C73 62.144531 69.855469 59 66 59 Z M 20 61C22.773438 61 25 63.226563 25 66C25 68.773438 22.773438 71 20 71C17.226563 71 15 68.773438 15 66C15 63.226563 17.226563 61 20 61 Z M 66 61C68.773438 61 71 63.226563 71 66C71 68.773438 68.773438 71 66 71C63.226563 71 61 68.773438 61 66C61 63.226563 63.226563 61 66 61Z"/></svg>